- 
http://www.Speed.Cd
 
http://www.Speed.Cd       the fast  and The Hottest Private Tracker on the net

Please Seed back to make the speed Faster!!
 ............ NFO .............
-##     ## #### ##     ## ########          ######  ##     ##  #######  
##     ##  ##  ##     ## ##               ##    ## ###   ### ##     ## 
##     ##  ##  ##     ## ##               ##       #### #### ##     ## 
#########  ##  ##     ## ######   ####### ##       ## ### ##  #######  
##     ##  ##   ##   ##  ##               ##       ##     ## ##     ## 
##     ##  ##    ## ##   ##               ##    ## ##     ## ##     ## 
##     ## ####    ###    ########          ######  ##     ##  #######  

###########  Thx Hive - CM8 Doing It Right The First Time  ###########


[IMG]http://img248.imageshack.us/img248/5240/jackreacher.jpg[/IMG]


Jack.Reacher.2012.R6.WEBRip.XVID.AC3.HQ.Hive-CM8


Source: R6 WEBRip

Video.: 720x256 @bitrate 1200 2pass
Audio.: English AC3 2.0 Stereo
Sample: Yes, included


IMDb..: http://www.imdb.com/title/tt0790724/


Encode:
Asian Rip was ok, just way too bright, colourless and contrast was wrong.
Also, had hardcoded chinese subs but they are small, at the bottom and nearly all 1-liner.
So I decided this one time only to crop the bottom sub-line off to get rid of them for good.
not much lost in this case so its ok.
that asian rip had some nasty hardcoded watermarks from the source site within the first minute,
1 min in the middle and 1 min near the end and they were even highlighted in blue, what a bummer. 
zooming in would lose too much video, having them stay looks awful too, so i decided to cut the
movie in pieces and play with the black borders at these 3 spots only. so you wont see that
watermark, you wont lose video either, it will look like the aspect changes.

Fixed the aspect, brightness, contrast, rgb and the colours, looks great now

for the audio, nearly sounds like studio, still needed a syncthrough and cleaning up.
all in all very watchable now and will do me till retail in 2 month.
enjoy


Note..:
didnt have much time the last 2 month, having some private problems,
will be bumpy next month too i guess


General
Complete name                  : Jack.Reacher.2012.R6.WEBRip.XVID.AC3.HQ.Hive-CM8.avi
Format                         : AVI
Format/Info                    : Audio Video Interleave
File size                      : 1.37 GiB
Duration                       : 2h 10mn
Overall bit rate               : 1 506 Kbps
Writing application            : Nandub v1.0rc2
Writing library                : Nandub build 1853/release

Video
ID                             : 0
Format                         : MPEG-4 Visual
Format profile                 : Advanced Simple@L5
Format settings, BVOP          : 2
Format settings, QPel          : Yes
Format settings, GMC           : No warppoints
Format settings, Matrix        : Default (H.263)
Muxing mode                    : Packed bitstream
Codec ID                       : XVID
Codec ID/Hint                  : XviD
Duration                       : 2h 10mn
Bit rate                       : 1 238 Kbps
Width                          : 720 pixels
Height                         : 256 pixels
Display aspect ratio           : 2.813
Frame rate                     : 29.970 fps
Color space                    : YUV
Chroma subsampling             : 4:2:0
Bit depth                      : 8 bits
Scan type                      : Progressive
Compression mode               : Lossy
Bits/(Pixel*Frame)             : 0.224
Stream size                    : 1.13 GiB (82%)
Writing library                : XviD 1.2.1 (UTC 2008-12-04)

Audio
ID                             : 1
Format                         : AC-3
Format/Info                    : Audio Coding 3
Codec ID                       : 2000
Duration                       : 2h 10mn
Bit rate mode                  : Constant
Bit rate                       : 256 Kbps
Channel(s)                     : 2 channels
Sampling rate                  : 48.0 KHz
Compression mode               : Lossy
Stream size                    : 239 MiB (17%)
Alignment                      : Split accross interleaves
Interleave, duration           : 33 ms (1.00 video frame)
Interleave, preload duration   : 500 ms


Plot..:
A homicide investigator digs deeper into a case involving
a trained military sniper who shot five random victims.


Cast..:
Tom Cruise       ...    Reacher
Rosamund Pike    ...    Helen
Richard Jenkins  ...    Rodin
 

[img]http://img248.imageshack.us/img248/3060/jrjjrr.png[/img]
[img]http://img849.imageshack.us/img849/5681/jrjjrrjr.png[/img]
[img]http://img6.imageshack.us/img6/2861/jrjjrrjrjr.png[/img]
[img]http://img35.imageshack.us/img35/47/jrjjrrjrjrjr.png[/img]
[img]http://img854.imageshack.us/img854/3281/jrjr.png[/img]
[img]http://img842.imageshack.us/img842/3157/28279237.png[/img]



Greetz:
ViSiON,SPK,SceneLovers,PRESTiGE,SANTi,3LT0N,YanKeeS,COPYxRIGHT,THC,T0XiC
D2U,LKRG,ADTRG,Feel-Free,KoDeKinG,FLAWL3SS,WBZ,BHRG,26K,NOVA,MAGNET
Unevano,BigVik,Rapeseed,SAFC,goldadvance,KaN1vE,Pinnz,Wayne,TED
SeeN,jtr,Limey,ICONiK,4PlayHD,THEDEN-RG,eXceSs,AKS74u,HiGH
Mr Hive,and most P2P groups
Great Work Guys!

LOOKING FOR ANYTHING YOU WANT TO LOOK AND SOUND BETTER

CM8@hushmail.com